<svg width="250" height="210" viewBox="0 0 250 210" fill="none" xmlns="http://www.w3.org/2000/svg">
<circle cx="95" cy="95" r="95" fill="#FFEFD3"/>
<path d="M115.402 23.3828H200.002" stroke="#FFAF2B" stroke-width="2"/>
<path d="M102.004 23H108.512" stroke="#FFAF2B" stroke-width="2"/>
<path d="M91.666 23.7656H97.0253" stroke="#FFAF2B" stroke-width="2"/>
<path d="M69.8477 116.021L110.042 150.856C113.615 153.791 122.292 157.9 128.417 150.856L164.783 117.935" stroke="#FFAF2B" stroke-width="2"/>
<path d="M164.783 175.739L135.307 145.114" stroke="#FFAF2B" stroke-width="2"/>
<path d="M70.6133 176.504L102.769 144.349" stroke="#FFAF2B" stroke-width="2"/>
<path d="M162.869 149.708H198.47" stroke="#FFAF2B" stroke-width="2"/>
<path d="M209.953 149.708H203.828" stroke="#FFAF2B" stroke-width="2"/>
<path d="M188.518 186.074H221.439" stroke="#FFAF2B" stroke-width="2"/>
<path d="M227.945 186.457H234.836" stroke="#FFAF2B" stroke-width="2"/>
<path d="M239.812 186.457H248.234" stroke="#FFAF2B" stroke-width="2"/>
<path d="M143.73 79.6548H110.426" stroke="#FFAF2B" stroke-width="2"/>
<path d="M101.238 80.0377H97.0273" stroke="#FFAF2B" stroke-width="2"/>
<path d="M132.629 91.139V104.92" stroke="#FFAF2B" stroke-width="2"/>
<path d="M161.338 96.8811L173.205 84.6313" stroke="#FFAF2B" stroke-width="2"/>
<path d="M208.805 85.0141L239.429 115.638" stroke="#FFAF2B" stroke-width="2"/>
<path d="M144.113 55.5383L177.8 85.3969C181.883 89.6078 192.882 96.0389 204.213 88.0766L240.963 55.5383" stroke="#FFAF2B" stroke-width="2"/>
<path d="M134.158 77.3581C134.771 75.8268 134.413 62.4287 134.158 55.9211C134.158 51.9654 136.455 44.2073 145.642 44.8198H239.046C242.236 44.5646 248.693 46.4275 248.999 55.9211V113.342C248.999 117.17 247.009 125.055 239.046 125.974L177.798 124.06" stroke="#FFAF2B" stroke-width="2"/>
<path d="M119.613 45.9682H88.6055" stroke="#FFAF2B" stroke-width="2"/>
<path d="M62.5742 45.5854H66.7851" stroke="#FFAF2B" stroke-width="2"/>
<path d="M74.8242 45.2025H80.9491" stroke="#FFAF2B" stroke-width="2"/>
<path d="M118.463 207.894H202.68" stroke="#FFAF2B" stroke-width="2"/>
<path d="M209.572 207.894H215.697" stroke="#FFAF2B" stroke-width="2"/>
<path d="M222.969 208.277H227.18" stroke="#FFAF2B" stroke-width="2"/>
<path d="M177.033 159.278V176.121C177.416 178.801 176.573 184.466 170.142 185.691H71.379C68.0614 185.819 61.3495 183.624 61.0433 173.825V114.49C60.6605 111.555 62.6511 105.839 73.6758 106.451H167.846C170.908 106.834 177.033 109.896 177.033 119.084V149.325" stroke="#FFAF2B" stroke-width="2"/>
</svg>
