<svg width="36" height="28" viewBox="0 0 36 28" fill="none" xmlns="http://www.w3.org/2000/svg">
<path d="M0.476905 13.6275L9.23794 16.77L11.6094 26.7716C11.6151 26.7959 11.6297 26.8152 11.6377 26.8383C11.6493 26.8723 11.6622 26.9039 11.6791 26.9361C11.7066 26.9887 11.7405 27.0347 11.7794 27.0782C11.7936 27.0942 11.7997 27.1143 11.8154 27.1292C11.8226 27.136 11.8322 27.1381 11.8396 27.1445C11.8873 27.1861 11.9414 27.2173 11.9985 27.2452C12.0195 27.2554 12.0378 27.2708 12.0595 27.2789C12.1382 27.3082 12.222 27.3257 12.3097 27.3257C12.3118 27.3257 12.3139 27.3257 12.316 27.3257C12.4068 27.325 12.4928 27.3045 12.5735 27.2724C12.596 27.2636 12.6148 27.248 12.6364 27.2368C12.6967 27.2055 12.7519 27.1689 12.8009 27.1222C12.8106 27.113 12.8235 27.1098 12.8328 27.1L19.1865 20.3733L24.9328 22.4422C25.0129 22.471 25.0952 22.4847 25.1768 22.4847C25.4418 22.4847 25.6942 22.3374 25.8194 22.0889L35.9169 2.05105C35.9394 2.00816 35.957 1.96352 35.9703 1.91746C35.9851 1.86754 35.9942 1.81692 35.9977 1.76559C35.9977 1.76489 35.9984 1.76453 35.9984 1.76453C36.0076 1.62989 35.9795 1.49172 35.9106 1.36692C35.8958 1.34055 35.8796 1.31489 35.8613 1.29028C35.7559 1.14509 35.6047 1.05017 35.4395 1.01255C35.4395 1.01255 35.4388 1.01255 35.4388 1.0122C35.4388 1.0122 35.4388 1.0122 35.4381 1.0122C35.4381 1.0122 35.4381 1.0122 35.4374 1.0122C35.4374 1.0122 35.4374 1.01185 35.4367 1.01185C35.436 1.01185 35.436 1.01185 35.4352 1.01149C35.4338 1.01114 35.4324 1.01114 35.431 1.01079C35.4303 1.01044 35.4303 1.01044 35.4296 1.01044L35.4289 1.01009C35.4282 1.01009 35.4282 1.01009 35.4282 1.01009C35.4282 1.01009 35.4275 1.01009 35.4275 1.00974C35.4254 1.00938 35.4233 1.00903 35.4219 1.00868C35.4205 1.00833 35.4205 1.00833 35.4205 1.00833C35.4198 1.00833 35.4198 1.00833 35.4191 1.00833C35.4184 1.00798 35.4184 1.00798 35.4184 1.00798C35.4177 1.00798 35.4177 1.00798 35.4177 1.00798C35.4177 1.00798 35.417 1.00798 35.417 1.00763H35.4163C35.4163 1.00763 35.4163 1.00763 35.4156 1.00763C35.2967 0.984424 35.1681 0.991807 35.0457 1.03364L0.497295 12.2649C0.204798 12.3602 0.00511235 12.6312 0.000190479 12.9388C-0.00402818 13.2468 0.18722 13.5235 0.476905 13.6275ZM13.7996 17.2546C13.744 17.2972 13.6971 17.3477 13.657 17.4029C13.6495 17.4133 13.6452 17.4254 13.6382 17.4363C13.5974 17.4991 13.5684 17.5673 13.5488 17.6393C13.5456 17.6511 13.5372 17.6598 13.5345 17.6719L12.283 23.3714L10.6727 16.5821L26.3861 7.61764L13.7996 17.2546ZM13.5698 24.2235L14.7649 18.7814L17.709 19.8414L13.5698 24.2235ZM24.821 20.8714L19.24 18.862C19.239 18.8616 19.238 18.8613 19.237 18.8609L15.7226 17.5956L33.2232 4.19627L24.821 20.8714ZM28.8175 4.57244L9.77916 15.4342L2.94626 12.9831L28.8175 4.57244Z" fill="white"/>
</svg>
