<svg width="234" height="201" viewBox="0 0 234 201" fill="none" xmlns="http://www.w3.org/2000/svg">
<circle cx="95" cy="95" r="95" fill="#E4FFEF"/>
<path d="M139.402 27.3214C123.636 27.5863 88.209 36.304 72.6285 69.055C64.2817 86.6758 57.1274 129.31 95.2838 158.882C104.823 166.831 132.725 179.947 168.02 168.818C174.777 174.648 193.617 184.558 214.921 177.562C208.429 171.733 195.763 158.166 197.035 150.535C202.599 141.658 213.569 119.294 212.933 100.852" stroke="#40C47B" stroke-width="2"/>
<path d="M147.799 28.6942L155.653 29.9232" stroke="#40C47B" stroke-width="2"/>
<path d="M162.059 31.6934L173.585 36.8604" stroke="#40C47B" stroke-width="2"/>
<path d="M180.342 40.4376L189.086 47.592" stroke="#40C47B" stroke-width="2"/>
<path d="M195.844 52.759L202.998 62.2981" stroke="#40C47B" stroke-width="2"/>
<path d="M206.178 69.0549L209.755 79.7864" stroke="#40C47B" stroke-width="2"/>
<path d="M212.139 87.3383V94.4926" stroke="#40C47B" stroke-width="2"/>
<path d="M148.545 87.7357L156.892 69.0549" stroke="#40C47B" stroke-width="2"/>
<path d="M157.688 95.685L183.125 80.9789" stroke="#40C47B" stroke-width="2"/>
<path d="M158.482 104.429H176.766" stroke="#40C47B" stroke-width="2"/>
<path d="M57.9238 179.55H221.679" stroke="#40C47B" stroke-width="2"/>
<path d="M227.242 179.947H233.999" stroke="#40C47B" stroke-width="2"/>
<path d="M46 179.152H53.1543" stroke="#40C47B" stroke-width="2"/>
<path d="M114.363 189.486H164.841" stroke="#40C47B" stroke-width="2"/>
<path d="M183.524 189.089H170.01" stroke="#40C47B" stroke-width="2"/>
<path d="M108.004 189.089H96.875" stroke="#40C47B" stroke-width="2"/>
<path d="M135.828 194.653H143.38" stroke="#40C47B" stroke-width="2"/>
<path d="M123.107 199.025H155.302" stroke="#40C47B" stroke-width="2"/>
<path d="M104.427 61.5032L121.916 51.5666L135.429 73.4271L133.442 77.7991L124.698 82.1712C120.246 84.715 122.843 90.3855 124.698 92.9027L144.571 125.097C146.161 129.549 150.533 128.807 152.52 127.879L158.085 125.097C163.808 122.553 165.504 124.037 165.637 125.097L179.15 143.381V147.355L160.867 156.894C137.337 155.304 117.411 131.324 110.389 119.533C91.947 86.1459 98.7304 66.9352 104.427 61.5032Z" stroke="#40C47B" stroke-width="2"/>
<circle cx="230.621" cy="18.3784" r="2.37844" stroke="#40C47B" stroke-width="2"/>
<circle cx="220.486" cy="53.1564" r="1.38478" stroke="#40C47B" stroke-width="2"/>
<circle cx="197.831" cy="38.0529" r="1" stroke="#40C47B" stroke-width="1.97463"/>
<circle cx="125.293" cy="19.5708" r="1.18605" stroke="#40C47B" stroke-width="2"/>
<circle cx="67.4649" cy="52.3615" r="1" stroke="#40C47B" stroke-width="1.1797"/>
<circle cx="52.9546" cy="124.501" r="2.37844" stroke="#40C47B" stroke-width="2"/>
</svg>
