<svg width="42" height="35" viewBox="0 0 42 35" fill="none" xmlns="http://www.w3.org/2000/svg">
<mask id="path-1-outside-1_1322_3455" maskUnits="userSpaceOnUse" x="0.0756836" y="0.0756073" width="41" height="35" fill="black">
<rect fill="white" x="0.0756836" y="0.0756073" width="41" height="35"/>
<path fill-rule="evenodd" clip-rule="evenodd" d="M36.7753 1.08393H5.80874C4.96302 1.02901 3.72561 1.23426 2.71808 2.04838C1.67946 2.88762 0.961066 4.31189 1.09082 6.53504V27.2108C1.09082 27.9369 1.40552 28.9604 2.30169 29.7888C3.20541 30.6243 4.65324 31.2197 6.84722 31.1768H21.4412V30.1768H6.84223V30.1767L6.83224 30.1769C5.47045 30.2041 4.49086 29.9626 3.79229 29.6104L16.3911 19.8338L15.778 19.0437L2.93401 29.0106C2.29161 28.3919 2.09082 27.6643 2.09082 27.2108V6.52026V6.50527L2.08992 6.49031C2.02991 5.49011 2.16252 4.71626 2.40534 4.11784L20.3756 19.9193L20.6993 20.2039L21.0285 19.9256L39.5413 4.27667C39.6987 4.75373 39.7512 5.21826 39.7414 5.56073L39.7412 5.56786V5.57501V18.1784H40.7412V5.58195C40.7596 4.89114 40.5905 3.85763 40.0154 2.94741C39.4238 2.0112 38.413 1.22649 36.8192 1.08587L36.7973 1.08393H36.7753ZM20.7122 18.8836L2.92411 3.24238C3.05716 3.08271 3.19959 2.94497 3.34658 2.82619C4.11911 2.20197 5.09784 2.03672 5.75715 2.08272L5.77453 2.08393H5.79195H36.7527C37.9241 2.19289 38.6422 2.72254 39.0846 3.35335L20.7122 18.8836ZM26.681 26.0896H34.4134L31.7388 29.6558L32.5388 30.2558L35.8134 25.8896L36.0384 25.5896L35.8134 25.2896L32.5388 20.9234L31.7388 21.5234L34.4134 25.0896H26.681V26.0896ZM39.8713 25.4254C39.8713 29.9196 36.228 33.5628 31.7338 33.5628C27.2396 33.5628 23.5964 29.9196 23.5964 25.4254C23.5964 20.9312 27.2396 17.2879 31.7338 17.2879C36.228 17.2879 39.8713 20.9312 39.8713 25.4254ZM40.8713 25.4254C40.8713 30.4718 36.7803 34.5628 31.7338 34.5628C26.6874 34.5628 22.5964 30.4718 22.5964 25.4254C22.5964 20.3789 26.6874 16.2879 31.7338 16.2879C36.7803 16.2879 40.8713 20.3789 40.8713 25.4254Z"/>
</mask>
<path fill-rule="evenodd" clip-rule="evenodd" d="M36.7753 1.08393H5.80874C4.96302 1.02901 3.72561 1.23426 2.71808 2.04838C1.67946 2.88762 0.961066 4.31189 1.09082 6.53504V27.2108C1.09082 27.9369 1.40552 28.9604 2.30169 29.7888C3.20541 30.6243 4.65324 31.2197 6.84722 31.1768H21.4412V30.1768H6.84223V30.1767L6.83224 30.1769C5.47045 30.2041 4.49086 29.9626 3.79229 29.6104L16.3911 19.8338L15.778 19.0437L2.93401 29.0106C2.29161 28.3919 2.09082 27.6643 2.09082 27.2108V6.52026V6.50527L2.08992 6.49031C2.02991 5.49011 2.16252 4.71626 2.40534 4.11784L20.3756 19.9193L20.6993 20.2039L21.0285 19.9256L39.5413 4.27667C39.6987 4.75373 39.7512 5.21826 39.7414 5.56073L39.7412 5.56786V5.57501V18.1784H40.7412V5.58195C40.7596 4.89114 40.5905 3.85763 40.0154 2.94741C39.4238 2.0112 38.413 1.22649 36.8192 1.08587L36.7973 1.08393H36.7753ZM20.7122 18.8836L2.92411 3.24238C3.05716 3.08271 3.19959 2.94497 3.34658 2.82619C4.11911 2.20197 5.09784 2.03672 5.75715 2.08272L5.77453 2.08393H5.79195H36.7527C37.9241 2.19289 38.6422 2.72254 39.0846 3.35335L20.7122 18.8836ZM26.681 26.0896H34.4134L31.7388 29.6558L32.5388 30.2558L35.8134 25.8896L36.0384 25.5896L35.8134 25.2896L32.5388 20.9234L31.7388 21.5234L34.4134 25.0896H26.681V26.0896ZM39.8713 25.4254C39.8713 29.9196 36.228 33.5628 31.7338 33.5628C27.2396 33.5628 23.5964 29.9196 23.5964 25.4254C23.5964 20.9312 27.2396 17.2879 31.7338 17.2879C36.228 17.2879 39.8713 20.9312 39.8713 25.4254ZM40.8713 25.4254C40.8713 30.4718 36.7803 34.5628 31.7338 34.5628C26.6874 34.5628 22.5964 30.4718 22.5964 25.4254C22.5964 20.3789 26.6874 16.2879 31.7338 16.2879C36.7803 16.2879 40.8713 20.3789 40.8713 25.4254Z" fill="black"/>
<path d="M5.80874 1.08393L5.79576 1.28393H5.80874V1.08393ZM2.71808 2.04838L2.84378 2.20394L2.84378 2.20394L2.71808 2.04838ZM1.09082 6.53504H1.29116L1.29048 6.52339L1.09082 6.53504ZM1.09082 27.2108L0.890816 27.2108L0.890816 27.2108L1.09082 27.2108ZM2.30169 29.7888L2.16593 29.9357L2.16593 29.9357L2.30169 29.7888ZM6.84722 31.1768L6.84722 30.9767L6.84331 30.9768L6.84722 31.1768ZM21.4412 31.1768V31.3768H21.6412V31.1768H21.4412ZM21.4412 30.1768H21.6412V29.9768H21.4412V30.1768ZM6.84223 30.1768H6.64223V30.3768H6.84223V30.1768ZM6.84223 30.1767H7.04223V29.9727L6.83827 29.9767L6.84223 30.1767ZM6.83224 30.1769L6.82827 29.9769L6.82824 29.9769L6.83224 30.1769ZM3.79229 29.6104L3.66968 29.4524L3.41958 29.6465L3.70226 29.789L3.79229 29.6104ZM16.3911 19.8338L16.5137 19.9918L16.6717 19.8691L16.5491 19.7111L16.3911 19.8338ZM15.778 19.0437L15.936 18.9211L15.8134 18.7631L15.6554 18.8857L15.778 19.0437ZM2.93401 29.0106L2.79527 29.1547L2.91991 29.2747L3.05663 29.1687L2.93401 29.0106ZM2.09082 27.2108L1.89082 27.2108L1.89082 27.2108L2.09082 27.2108ZM2.09082 6.50527L2.29118 6.50527L2.29046 6.49329L2.09082 6.50527ZM2.08992 6.49031L1.89028 6.50229L1.89028 6.50229L2.08992 6.49031ZM2.40534 4.11784L2.53741 3.96765L2.32591 3.78168L2.22002 4.04264L2.40534 4.11784ZM20.3756 19.9193L20.2435 20.0694L20.2435 20.0694L20.3756 19.9193ZM20.6993 20.2039L20.5672 20.3541L20.6967 20.468L20.8284 20.3567L20.6993 20.2039ZM21.0285 19.9256L20.8994 19.7729L20.8994 19.7729L21.0285 19.9256ZM39.5413 4.27667L39.7313 4.214L39.6385 3.9327L39.4122 4.12393L39.5413 4.27667ZM39.7414 5.56073L39.9413 5.56649L39.9413 5.56644L39.7414 5.56073ZM39.7412 5.56786L39.5412 5.56209V5.56786H39.7412ZM39.7412 18.1784H39.5412V18.3784H39.7412V18.1784ZM40.7412 18.1784V18.3784H40.9412V18.1784H40.7412ZM40.7412 5.58195L40.5412 5.57664V5.58195H40.7412ZM40.0154 2.94741L39.8463 3.05425L39.8463 3.05425L40.0154 2.94741ZM36.8192 1.08587L36.8017 1.28509L36.8017 1.28509L36.8192 1.08587ZM36.7973 1.08393L36.8149 0.884706L36.8061 0.883932H36.7973V1.08393ZM2.92411 3.24238L2.77046 3.11435L2.64578 3.26398L2.79204 3.39258L2.92411 3.24238ZM20.7122 18.8836L20.5801 19.0338L20.7096 19.1477L20.8413 19.0364L20.7122 18.8836ZM3.34658 2.82619L3.22088 2.67063L3.22088 2.67063L3.34658 2.82619ZM5.75715 2.08272L5.77107 1.8832L5.77107 1.8832L5.75715 2.08272ZM5.77453 2.08393L5.76057 2.28393H5.77453V2.08393ZM36.7527 2.08393L36.7712 1.88479L36.762 1.88393H36.7527V2.08393ZM39.0846 3.35335L39.2137 3.50609L39.3533 3.38812L39.2483 3.2385L39.0846 3.35335ZM34.4134 26.0896L34.5734 26.2096L34.8134 25.8896H34.4134V26.0896ZM26.681 26.0896H26.481V26.2896H26.681V26.0896ZM31.7388 29.6558L31.5788 29.5358L31.4588 29.6958L31.6188 29.8158L31.7388 29.6558ZM32.5388 30.2558L32.4188 30.4158L32.5788 30.5358L32.6988 30.3758L32.5388 30.2558ZM35.8134 25.8896L35.9734 26.0096L35.9734 26.0096L35.8134 25.8896ZM36.0384 25.5896L36.1984 25.7096L36.2884 25.5896L36.1984 25.4696L36.0384 25.5896ZM35.8134 25.2896L35.9734 25.1696L35.9734 25.1696L35.8134 25.2896ZM32.5388 20.9234L32.6988 20.8034L32.5788 20.6434L32.4188 20.7634L32.5388 20.9234ZM31.7388 21.5234L31.6188 21.3634L31.4588 21.4834L31.5788 21.6434L31.7388 21.5234ZM34.4134 25.0896V25.2896H34.8134L34.5734 24.9696L34.4134 25.0896ZM26.681 25.0896V24.8896H26.481V25.0896H26.681ZM5.80874 1.28393H36.7753V0.883932H5.80874V1.28393ZM2.84378 2.20394C3.80313 1.42876 4.98707 1.23099 5.79578 1.28351L5.82171 0.884352C4.93896 0.827022 3.6481 1.03977 2.59238 1.89282L2.84378 2.20394ZM1.29048 6.52339C1.16378 4.35264 1.86401 2.99563 2.84378 2.20394L2.59238 1.89282C1.4949 2.77962 0.758348 4.27115 0.891155 6.54669L1.29048 6.52339ZM1.29082 27.2108V6.53504H0.890816V27.2108H1.29082ZM2.43745 29.642C1.58469 28.8536 1.29082 27.8846 1.29082 27.2108L0.890816 27.2108C0.890816 27.9893 1.22635 29.0671 2.16593 29.9357L2.43745 29.642ZM6.84331 30.9768C4.68776 31.019 3.2945 30.4343 2.43745 29.642L2.16593 29.9357C3.11632 30.8143 4.61872 31.4204 6.85113 31.3767L6.84331 30.9768ZM21.4412 30.9768H6.84722V31.3768H21.4412V30.9768ZM21.2412 30.1768V31.1768H21.6412V30.1768H21.2412ZM6.84223 30.3768H21.4412V29.9768H6.84223V30.3768ZM6.64223 30.1767V30.1768H7.04223V30.1767H6.64223ZM6.8362 30.3768L6.8462 30.3766L6.83827 29.9767L6.82827 29.9769L6.8362 30.3768ZM3.70226 29.789C4.43581 30.1588 5.44907 30.4046 6.83623 30.3768L6.82824 29.9769C5.49182 30.0036 4.54591 29.7664 3.88233 29.4318L3.70226 29.789ZM16.2684 19.6757L3.66968 29.4524L3.91491 29.7684L16.5137 19.9918L16.2684 19.6757ZM15.62 19.1663L16.233 19.9564L16.5491 19.7111L15.936 18.9211L15.62 19.1663ZM3.05663 29.1687L15.9006 19.2017L15.6554 18.8857L2.8114 28.8526L3.05663 29.1687ZM1.89082 27.2108C1.89082 27.7156 2.11159 28.4962 2.79527 29.1547L3.07276 28.8666C2.47163 28.2876 2.29082 27.613 2.29082 27.2108L1.89082 27.2108ZM1.89082 6.52026V27.2108H2.29082V6.52026H1.89082ZM1.89082 6.50527V6.52026H2.29082V6.50527H1.89082ZM1.89028 6.50229L1.89117 6.51725L2.29046 6.49329L2.28956 6.47833L1.89028 6.50229ZM2.22002 4.04264C1.9639 4.67384 1.82884 5.47842 1.89028 6.50229L2.28956 6.47834C2.23097 5.5018 2.36114 4.75868 2.59067 4.19304L2.22002 4.04264ZM20.5076 19.7691L2.53741 3.96765L2.27328 4.26804L20.2435 20.0694L20.5076 19.7691ZM20.8314 20.0537L20.5076 19.7691L20.2435 20.0694L20.5672 20.3541L20.8314 20.0537ZM20.8994 19.7729L20.5702 20.0512L20.8284 20.3567L21.1576 20.0784L20.8994 19.7729ZM39.4122 4.12393L20.8994 19.7729L21.1576 20.0784L39.6705 4.42941L39.4122 4.12393ZM39.9413 5.56644C39.9518 5.20122 39.8961 4.71352 39.7313 4.214L39.3514 4.33933C39.5014 4.79394 39.5506 5.23531 39.5415 5.55501L39.9413 5.56644ZM39.9411 5.57363L39.9413 5.56649L39.5415 5.55496L39.5413 5.5621L39.9411 5.57363ZM39.9412 5.57501V5.56786H39.5412V5.57501H39.9412ZM39.9412 18.1784V5.57501H39.5412V18.1784H39.9412ZM40.7412 17.9784H39.7412V18.3784H40.7412V17.9784ZM40.5412 5.58195V18.1784H40.9412V5.58195H40.5412ZM39.8463 3.05425C40.3961 3.92442 40.5588 4.91692 40.5413 5.57664L40.9412 5.58726C40.9603 4.86536 40.7849 3.79084 40.1844 2.84058L39.8463 3.05425ZM36.8017 1.28509C38.3292 1.41988 39.2858 2.16725 39.8463 3.05425L40.1844 2.84058C39.5618 1.85516 38.4968 1.03311 36.8368 0.886641L36.8017 1.28509ZM36.7797 1.28316L36.8017 1.28509L36.8368 0.886641L36.8149 0.884706L36.7797 1.28316ZM36.7753 1.28393H36.7973V0.883932H36.7753V1.28393ZM2.79204 3.39258L20.5801 19.0338L20.8442 18.7334L3.05617 3.09219L2.79204 3.39258ZM3.22088 2.67063C3.06417 2.79726 2.91228 2.94415 2.77046 3.11435L3.07776 3.37042C3.20203 3.22127 3.335 3.09268 3.47228 2.98176L3.22088 2.67063ZM5.77107 1.8832C5.07431 1.83459 4.04178 2.00731 3.22088 2.67063L3.47228 2.98176C4.19643 2.39662 5.12138 2.23885 5.74323 2.28223L5.77107 1.8832ZM5.78845 1.88442L5.77107 1.8832L5.74323 2.28223L5.76061 2.28345L5.78845 1.88442ZM5.79195 1.88393H5.77453V2.28393H5.79195V1.88393ZM36.7527 1.88393H5.79195V2.28393H36.7527V1.88393ZM39.2483 3.2385C38.7734 2.56134 38.0031 1.99937 36.7712 1.88479L36.7342 2.28307C37.8451 2.38641 38.5109 2.88373 38.9209 3.46819L39.2483 3.2385ZM20.8413 19.0364L39.2137 3.50609L38.9555 3.20061L20.5831 18.7309L20.8413 19.0364ZM34.4134 25.8896H26.681V26.2896H34.4134V25.8896ZM31.8988 29.7758L34.5734 26.2096L34.2534 25.9696L31.5788 29.5358L31.8988 29.7758ZM32.6588 30.0958L31.8588 29.4958L31.6188 29.8158L32.4188 30.4158L32.6588 30.0958ZM35.6534 25.7696L32.3788 30.1358L32.6988 30.3758L35.9734 26.0096L35.6534 25.7696ZM35.8784 25.4696L35.6534 25.7696L35.9734 26.0096L36.1984 25.7096L35.8784 25.4696ZM35.6534 25.4096L35.8784 25.7096L36.1984 25.4696L35.9734 25.1696L35.6534 25.4096ZM32.3788 21.0434L35.6534 25.4096L35.9734 25.1696L32.6988 20.8034L32.3788 21.0434ZM31.8588 21.6834L32.6588 21.0834L32.4188 20.7634L31.6188 21.3634L31.8588 21.6834ZM34.5734 24.9696L31.8988 21.4034L31.5788 21.6434L34.2534 25.2096L34.5734 24.9696ZM26.681 25.2896H34.4134V24.8896H26.681V25.2896ZM26.881 26.0896V25.0896H26.481V26.0896H26.881ZM31.7338 33.7628C36.3385 33.7628 40.0713 30.03 40.0713 25.4254H39.6713C39.6713 29.8091 36.1176 33.3628 31.7338 33.3628V33.7628ZM23.3964 25.4254C23.3964 30.03 27.1292 33.7628 31.7338 33.7628V33.3628C27.3501 33.3628 23.7964 29.8091 23.7964 25.4254H23.3964ZM31.7338 17.0879C27.1292 17.0879 23.3964 20.8207 23.3964 25.4254H23.7964C23.7964 21.0416 27.3501 17.4879 31.7338 17.4879V17.0879ZM40.0713 25.4254C40.0713 20.8207 36.3385 17.0879 31.7338 17.0879V17.4879C36.1176 17.4879 39.6713 21.0416 39.6713 25.4254H40.0713ZM31.7338 34.7628C36.8908 34.7628 41.0713 30.5823 41.0713 25.4254H40.6713C40.6713 30.3614 36.6699 34.3628 31.7338 34.3628V34.7628ZM22.3964 25.4254C22.3964 30.5823 26.5769 34.7628 31.7338 34.7628V34.3628C26.7978 34.3628 22.7964 30.3614 22.7964 25.4254H22.3964ZM31.7338 16.0879C26.5769 16.0879 22.3964 20.2684 22.3964 25.4254H22.7964C22.7964 20.4893 26.7978 16.4879 31.7338 16.4879V16.0879ZM41.0713 25.4254C41.0713 20.2684 36.8908 16.0879 31.7338 16.0879V16.4879C36.6699 16.4879 40.6713 20.4893 40.6713 25.4254H41.0713Z" fill="black" mask="url(#path-1-outside-1_1322_3455)"/>
</svg>
