<svg width="41" height="42" viewBox="0 0 41 42" fill="none" xmlns="http://www.w3.org/2000/svg">
<path d="M14.0465 12.1212C13.8364 14.2214 11.0536 15.6216 9.68839 16.0592C10.6125 26.7286 20.3998 31.0062 25.1779 31.8113C25.346 29.795 27.6633 28.2408 28.8009 27.7157C34.5977 27.5897 36.712 33.369 37.0445 36.2744C36.8345 38.8787 31.8813 40.5099 29.431 41C9.22632 35.1192 2.07487 19.2971 1.02473 12.1212C0.688688 7.41653 3.86011 4.94521 5.48783 4.29762C9.39435 2.70141 12.8213 8.84823 14.0465 12.1212Z" stroke="black" stroke-width="1.5"/>
<path d="M20.9775 12.9088C23.2703 12.7687 27.7509 13.8539 27.3309 19.3146" stroke="black" stroke-width="1.5"/>
<path d="M21.2399 7.34301C23.5502 7.02797 27.2887 7.58455 30.4811 11.281C33.474 14.7465 33.0014 18.8946 32.6864 19.6822" stroke="black" stroke-width="1.5"/>
<path d="M21.2925 1.04218C26.8407 0.587121 38.3573 3.62553 40.0375 19.4196" stroke="black" stroke-width="1.5"/>
</svg>
