<svg width="18" height="18" viewBox="0 0 18 18" fill="none" xmlns="http://www.w3.org/2000/svg">
<path d="M15.2999 1.79988H14.3999V0.899942C14.3999 0.359946 14.04 0 13.5 0C12.96 0 12.6 0.359946 12.6 0.899942V1.79988H5.39996V0.899942C5.39996 0.359946 5.04002 0 4.50002 0C3.95987 0 3.59992 0.359946 3.59992 0.899942V1.79988H2.69998C1.16994 1.79988 0 2.96998 0 4.49987V15.2998C0 16.8298 1.16994 17.9998 2.69998 17.9998H15.3C16.8301 17.9998 18 16.8298 18 15.2998L17.9998 4.49987C17.9998 2.96998 16.8299 1.79988 15.2999 1.79988H15.2999ZM2.70021 3.59992H3.60015C3.60015 4.13992 3.9601 4.49987 4.5001 4.49987C5.04009 4.49987 5.40004 4.13992 5.40004 3.59992H12.6001C12.6001 4.13992 12.9601 4.49987 13.5001 4.49987C14.0401 4.49987 14.4 4.13992 14.4 3.59992H15.2999C15.8399 3.59992 16.1999 3.95987 16.1999 4.49987V5.39981L1.80012 5.39996V4.49986C1.80012 3.95987 2.16021 3.59992 2.70021 3.59992V3.59992ZM15.2999 16.2H2.70021C2.16022 16.2 1.80027 15.84 1.80027 15.3V7.20008H16.2V15.3C16.2 15.8399 15.8399 16.2 15.2999 16.2H15.2999ZM5.84993 8.99988C5.84993 9.53988 5.48999 9.89983 4.94999 9.89983H4.05005C3.51005 9.89983 3.15011 9.53988 3.15011 8.99988C3.15011 8.45989 3.51005 8.09994 4.05005 8.09994H4.94999C5.48999 8.09994 5.84993 8.45989 5.84993 8.99988ZM10.35 8.99988C10.35 9.53988 9.99008 9.89983 9.45009 9.89983H8.55014C8.01015 9.89983 7.6502 9.53988 7.6502 8.99988C7.6502 8.45989 8.01015 8.09994 8.55014 8.09994H9.45009C9.99008 8.09994 10.35 8.45989 10.35 8.99988ZM14.8501 8.99988C14.8501 9.53988 14.4902 9.89983 13.9502 9.89983H13.0502C12.5102 9.89983 12.1503 9.53988 12.1503 8.99988C12.1503 8.45989 12.5102 8.09994 13.0502 8.09994H13.9502C14.49 8.09994 14.8501 8.45989 14.8501 8.99988ZM5.84993 14.3998C5.84993 14.9398 5.48999 15.2998 4.94999 15.2998H4.05005C3.51005 15.2998 3.15011 14.9398 3.15011 14.3998C3.15011 13.8598 3.51005 13.4999 4.05005 13.4999H4.94999C5.48999 13.4999 5.84993 13.8598 5.84993 14.3998ZM5.84993 11.6999C5.84993 12.2399 5.48999 12.5998 4.94999 12.5998H4.05005C3.51005 12.5998 3.15011 12.2399 3.15011 11.6999C3.15011 11.1599 3.51005 10.7999 4.05005 10.7999H4.94999C5.48999 10.7999 5.84993 11.1599 5.84993 11.6999ZM10.35 14.3998C10.35 14.9398 9.99008 15.2998 9.45009 15.2998H8.55014C8.01015 15.2998 7.6502 14.9398 7.6502 14.3998C7.6502 13.8598 8.01015 13.4999 8.55014 13.4999H9.45009C9.99008 13.4999 10.35 13.8598 10.35 14.3998ZM14.8501 14.3998C14.8501 14.9398 14.4902 15.2998 13.9502 15.2998H13.0502C12.5102 15.2998 12.1503 14.9398 12.1503 14.3998C12.1503 13.8598 12.5102 13.4999 13.0502 13.4999H13.9502C14.49 13.4999 14.8501 13.8598 14.8501 14.3998ZM14.8501 11.6999C14.8501 12.2399 14.4902 12.5998 13.9502 12.5998H13.0502C12.5102 12.5998 12.1503 12.2399 12.1503 11.6999C12.1503 11.1599 12.5102 10.7999 13.0502 10.7999H13.9502C14.49 10.7999 14.8501 11.1599 14.8501 11.6999ZM10.35 11.6999C10.35 12.2399 9.99008 12.5998 9.45009 12.5998H8.55014C8.01015 12.5998 7.6502 12.2399 7.6502 11.6999C7.6502 11.1599 8.01015 10.7999 8.55014 10.7999H9.45009C9.99008 10.7999 10.35 11.1599 10.35 11.6999Z" fill="#A5A5A5"/>
</svg>
