<svg width="42" height="42" viewBox="0 0 42 42" fill="none" xmlns="http://www.w3.org/2000/svg">
<mask id="path-1-outside-1_1322_3445" maskUnits="userSpaceOnUse" x="0.0458984" y="0.0458069" width="42" height="42" fill="black">
<rect fill="white" x="0.0458984" y="0.0458069" width="42" height="42"/>
<path fill-rule="evenodd" clip-rule="evenodd" d="M1.0459 1.04581H1.5459H26.1947V1.39908H26.5108L26.7193 1.21873L31.4144 6.64733L31.5362 6.78818V6.97441V22.6672H30.5362V7.16063L30.4495 7.06046V7.32768H26.1947H25.6947V6.82768V2.04581H2.0459V37.4321H23.407V38.4321H1.5459H1.0459V37.9321V1.54581V1.04581ZM26.6947 2.71892V6.32768H29.8158L26.6947 2.71892ZM22.8203 8.50144H5.36073V7.50144H22.8203V8.50144ZM5.06717 13.1964H24.0673V12.1964H5.06717V13.1964ZM24.0674 17.8914H5.36073V16.8914H24.0674V17.8914ZM5.06717 22.4397H24.0673V21.4397H5.06717V22.4397ZM21.6464 27.4282H5.06717V26.4282H21.6464V27.4282ZM5.21377 32.2699H18.4185V31.2699H5.21377V32.2699ZM32.4354 39.897C36.6374 39.897 40.0439 36.4906 40.0439 32.2885C40.0439 28.0864 36.6374 24.68 32.4354 24.68C28.2333 24.68 24.8268 28.0864 24.8268 32.2885C24.8268 36.4906 28.2333 39.897 32.4354 39.897ZM32.4354 40.897C37.1897 40.897 41.0439 37.0429 41.0439 32.2885C41.0439 27.5341 37.1897 23.68 32.4354 23.68C27.681 23.68 23.8268 27.5341 23.8268 32.2885C23.8268 37.0429 27.681 40.897 32.4354 40.897ZM32.1605 35.178L37.3422 30.1142L36.6433 29.399L31.8236 34.109L29.7589 31.9435L29.0352 32.6335L31.4492 35.1655L31.7985 35.5318L32.1605 35.178Z"/>
</mask>
<path fill-rule="evenodd" clip-rule="evenodd" d="M1.0459 1.04581H1.5459H26.1947V1.39908H26.5108L26.7193 1.21873L31.4144 6.64733L31.5362 6.78818V6.97441V22.6672H30.5362V7.16063L30.4495 7.06046V7.32768H26.1947H25.6947V6.82768V2.04581H2.0459V37.4321H23.407V38.4321H1.5459H1.0459V37.9321V1.54581V1.04581ZM26.6947 2.71892V6.32768H29.8158L26.6947 2.71892ZM22.8203 8.50144H5.36073V7.50144H22.8203V8.50144ZM5.06717 13.1964H24.0673V12.1964H5.06717V13.1964ZM24.0674 17.8914H5.36073V16.8914H24.0674V17.8914ZM5.06717 22.4397H24.0673V21.4397H5.06717V22.4397ZM21.6464 27.4282H5.06717V26.4282H21.6464V27.4282ZM5.21377 32.2699H18.4185V31.2699H5.21377V32.2699ZM32.4354 39.897C36.6374 39.897 40.0439 36.4906 40.0439 32.2885C40.0439 28.0864 36.6374 24.68 32.4354 24.68C28.2333 24.68 24.8268 28.0864 24.8268 32.2885C24.8268 36.4906 28.2333 39.897 32.4354 39.897ZM32.4354 40.897C37.1897 40.897 41.0439 37.0429 41.0439 32.2885C41.0439 27.5341 37.1897 23.68 32.4354 23.68C27.681 23.68 23.8268 27.5341 23.8268 32.2885C23.8268 37.0429 27.681 40.897 32.4354 40.897ZM32.1605 35.178L37.3422 30.1142L36.6433 29.399L31.8236 34.109L29.7589 31.9435L29.0352 32.6335L31.4492 35.1655L31.7985 35.5318L32.1605 35.178Z" fill="black"/>
<path d="M1.0459 1.04581V0.845807H0.845898V1.04581H1.0459ZM26.1947 1.04581H26.3947V0.845807H26.1947V1.04581ZM26.1947 1.39908H25.9947V1.59908H26.1947V1.39908ZM26.5108 1.39908V1.59908H26.5853L26.6416 1.55035L26.5108 1.39908ZM26.7193 1.21873L26.8706 1.0879L26.7398 0.936628L26.5885 1.06746L26.7193 1.21873ZM31.4144 6.64733L31.2631 6.77816L31.2631 6.77816L31.4144 6.64733ZM31.5362 6.78818H31.7362V6.71369L31.6874 6.65735L31.5362 6.78818ZM31.5362 22.6672V22.8672H31.7362V22.6672H31.5362ZM30.5362 22.6672H30.3362V22.8672H30.5362V22.6672ZM30.5362 7.16063H30.7362V7.08614L30.6874 7.0298L30.5362 7.16063ZM30.4495 7.06046L30.6008 6.92963L30.2495 6.52347V7.06046H30.4495ZM30.4495 7.32768V7.52768H30.6495V7.32768H30.4495ZM25.6947 7.32768H25.4947V7.52768H25.6947V7.32768ZM25.6947 2.04581H25.8947V1.84581H25.6947V2.04581ZM2.0459 2.04581V1.84581H1.8459V2.04581H2.0459ZM2.0459 37.4321H1.8459V37.6321H2.0459V37.4321ZM23.407 37.4321H23.607V37.2321H23.407V37.4321ZM23.407 38.4321V38.6321H23.607V38.4321H23.407ZM1.0459 38.4321H0.845898V38.6321H1.0459V38.4321ZM26.6947 6.32768H26.4947V6.52768H26.6947V6.32768ZM26.6947 2.71892L26.846 2.58809L26.4947 2.18193V2.71892H26.6947ZM29.8158 6.32768V6.52768H30.2532L29.9671 6.19685L29.8158 6.32768ZM5.36073 8.50144H5.16073V8.70144H5.36073V8.50144ZM22.8203 8.50144V8.70144H23.0203V8.50144H22.8203ZM5.36073 7.50144V7.30144H5.16073V7.50144H5.36073ZM22.8203 7.50144H23.0203V7.30144H22.8203V7.50144ZM24.0673 13.1964V13.3964H24.2673V13.1964H24.0673ZM5.06717 13.1964H4.86717V13.3964H5.06717V13.1964ZM24.0673 12.1964H24.2673V11.9964H24.0673V12.1964ZM5.06717 12.1964V11.9964H4.86717V12.1964H5.06717ZM5.36073 17.8914H5.16073V18.0914H5.36073V17.8914ZM24.0674 17.8914V18.0914H24.2674V17.8914H24.0674ZM5.36073 16.8914V16.6914H5.16073V16.8914H5.36073ZM24.0674 16.8914H24.2674V16.6914H24.0674V16.8914ZM24.0673 22.4397V22.6397H24.2673V22.4397H24.0673ZM5.06717 22.4397H4.86717V22.6397H5.06717V22.4397ZM24.0673 21.4397H24.2673V21.2397H24.0673V21.4397ZM5.06717 21.4397V21.2397H4.86717V21.4397H5.06717ZM5.06717 27.4282H4.86717V27.6282H5.06717V27.4282ZM21.6464 27.4282V27.6282H21.8464V27.4282H21.6464ZM5.06717 26.4282V26.2282H4.86717V26.4282H5.06717ZM21.6464 26.4282H21.8464V26.2282H21.6464V26.4282ZM18.4185 32.2699V32.4699H18.6185V32.2699H18.4185ZM5.21377 32.2699H5.01377V32.4699H5.21377V32.2699ZM18.4185 31.2699H18.6185V31.0699H18.4185V31.2699ZM5.21377 31.2699V31.0699H5.01377V31.2699H5.21377ZM37.3422 30.1142L37.482 30.2572L37.6251 30.1174L37.4853 29.9744L37.3422 30.1142ZM32.1605 35.178L32.0207 35.035L32.0207 35.035L32.1605 35.178ZM36.6433 29.399L36.7864 29.2592L36.6466 29.1162L36.5035 29.2559L36.6433 29.399ZM31.8236 34.109L31.6789 34.247L31.8186 34.3936L31.9634 34.2521L31.8236 34.109ZM29.7589 31.9435L29.9037 31.8055L29.7656 31.6607L29.6209 31.7987L29.7589 31.9435ZM29.0352 32.6335L28.8971 32.4888L28.7524 32.6268L28.8904 32.7715L29.0352 32.6335ZM31.4492 35.1655L31.3044 35.3035L31.3044 35.3035L31.4492 35.1655ZM31.7985 35.5318L31.6537 35.6698L31.7935 35.8164L31.9383 35.6749L31.7985 35.5318ZM1.5459 0.845807H1.0459V1.24581H1.5459V0.845807ZM26.1947 0.845807H1.5459V1.24581H26.1947V0.845807ZM26.3947 1.39908V1.04581H25.9947V1.39908H26.3947ZM26.5108 1.19908H26.1947V1.59908H26.5108V1.19908ZM26.5885 1.06746L26.38 1.24781L26.6416 1.55035L26.8502 1.37L26.5885 1.06746ZM31.5656 6.5165L26.8706 1.0879L26.5681 1.34956L31.2631 6.77816L31.5656 6.5165ZM31.6874 6.65735L31.5656 6.5165L31.2631 6.77816L31.3849 6.91901L31.6874 6.65735ZM31.7362 6.97441V6.78818H31.3362V6.97441H31.7362ZM31.7362 22.6672V6.97441H31.3362V22.6672H31.7362ZM30.5362 22.8672H31.5362V22.4672H30.5362V22.8672ZM30.3362 7.16063V22.6672H30.7362V7.16063H30.3362ZM30.2983 7.19129L30.3849 7.29146L30.6874 7.0298L30.6008 6.92963L30.2983 7.19129ZM30.6495 7.32768V7.06046H30.2495V7.32768H30.6495ZM26.1947 7.52768H30.4495V7.12768H26.1947V7.52768ZM25.6947 7.52768H26.1947V7.12768H25.6947V7.52768ZM25.4947 6.82768V7.32768H25.8947V6.82768H25.4947ZM25.4947 2.04581V6.82768H25.8947V2.04581H25.4947ZM2.0459 2.24581H25.6947V1.84581H2.0459V2.24581ZM2.2459 37.4321V2.04581H1.8459V37.4321H2.2459ZM23.407 37.2321H2.0459V37.6321H23.407V37.2321ZM23.607 38.4321V37.4321H23.207V38.4321H23.607ZM1.5459 38.6321H23.407V38.2321H1.5459V38.6321ZM1.0459 38.6321H1.5459V38.2321H1.0459V38.6321ZM0.845898 37.9321V38.4321H1.2459V37.9321H0.845898ZM0.845898 1.54581V37.9321H1.2459V1.54581H0.845898ZM0.845898 1.04581V1.54581H1.2459V1.04581H0.845898ZM26.8947 6.32768V2.71892H26.4947V6.32768H26.8947ZM29.8158 6.12768H26.6947V6.52768H29.8158V6.12768ZM26.5434 2.84975L29.6645 6.45851L29.9671 6.19685L26.846 2.58809L26.5434 2.84975ZM5.36073 8.70144H22.8203V8.30144H5.36073V8.70144ZM5.16073 7.50144V8.50144H5.56073V7.50144H5.16073ZM22.8203 7.30144H5.36073V7.70144H22.8203V7.30144ZM23.0203 8.50144V7.50144H22.6203V8.50144H23.0203ZM24.0673 12.9964H5.06717V13.3964H24.0673V12.9964ZM23.8673 12.1964V13.1964H24.2673V12.1964H23.8673ZM5.06717 12.3964H24.0673V11.9964H5.06717V12.3964ZM5.26717 13.1964V12.1964H4.86717V13.1964H5.26717ZM5.36073 18.0914H24.0674V17.6914H5.36073V18.0914ZM5.16073 16.8914V17.8914H5.56073V16.8914H5.16073ZM24.0674 16.6914H5.36073V17.0914H24.0674V16.6914ZM24.2674 17.8914V16.8914H23.8674V17.8914H24.2674ZM24.0673 22.2397H5.06717V22.6397H24.0673V22.2397ZM23.8673 21.4397V22.4397H24.2673V21.4397H23.8673ZM5.06717 21.6397H24.0673V21.2397H5.06717V21.6397ZM5.26717 22.4397V21.4397H4.86717V22.4397H5.26717ZM5.06717 27.6282H21.6464V27.2282H5.06717V27.6282ZM4.86717 26.4282V27.4282H5.26717V26.4282H4.86717ZM21.6464 26.2282H5.06717V26.6282H21.6464V26.2282ZM21.8464 27.4282V26.4282H21.4464V27.4282H21.8464ZM18.4185 32.0699H5.21377V32.4699H18.4185V32.0699ZM18.2185 31.2699V32.2699H18.6185V31.2699H18.2185ZM5.21377 31.4699H18.4185V31.0699H5.21377V31.4699ZM5.41377 32.2699V31.2699H5.01377V32.2699H5.41377ZM39.8439 32.2885C39.8439 36.3801 36.527 39.697 32.4354 39.697V40.097C36.7479 40.097 40.2439 36.601 40.2439 32.2885H39.8439ZM32.4354 24.88C36.527 24.88 39.8439 28.1969 39.8439 32.2885H40.2439C40.2439 27.976 36.7479 24.48 32.4354 24.48V24.88ZM25.0268 32.2885C25.0268 28.1969 28.3437 24.88 32.4354 24.88V24.48C28.1228 24.48 24.6268 27.976 24.6268 32.2885H25.0268ZM32.4354 39.697C28.3437 39.697 25.0268 36.3801 25.0268 32.2885H24.6268C24.6268 36.601 28.1228 40.097 32.4354 40.097V39.697ZM40.8439 32.2885C40.8439 36.9324 37.0793 40.697 32.4354 40.697V41.097C37.3002 41.097 41.2439 37.1533 41.2439 32.2885H40.8439ZM32.4354 23.88C37.0793 23.88 40.8439 27.6446 40.8439 32.2885H41.2439C41.2439 27.4237 37.3002 23.48 32.4354 23.48V23.88ZM24.0268 32.2885C24.0268 27.6446 27.7915 23.88 32.4354 23.88V23.48C27.5705 23.48 23.6268 27.4237 23.6268 32.2885H24.0268ZM32.4354 40.697C27.7915 40.697 24.0268 36.9324 24.0268 32.2885H23.6268C23.6268 37.1533 27.5705 41.097 32.4354 41.097V40.697ZM37.2025 29.9711L32.0207 35.035L32.3003 35.3211L37.482 30.2572L37.2025 29.9711ZM36.5003 29.5388L37.1992 30.254L37.4853 29.9744L36.7864 29.2592L36.5003 29.5388ZM31.9634 34.2521L36.7831 29.542L36.5035 29.2559L31.6839 33.966L31.9634 34.2521ZM29.6142 32.0815L31.6789 34.247L31.9684 33.971L29.9037 31.8055L29.6142 32.0815ZM29.1732 32.7783L29.8969 32.0882L29.6209 31.7987L28.8971 32.4888L29.1732 32.7783ZM31.5939 35.0274L29.1799 32.4955L28.8904 32.7715L31.3044 35.3035L31.5939 35.0274ZM31.9432 35.3938L31.5939 35.0274L31.3044 35.3035L31.6537 35.6698L31.9432 35.3938ZM32.0207 35.035L31.6587 35.3888L31.9383 35.6749L32.3003 35.3211L32.0207 35.035Z" fill="black" mask="url(#path-1-outside-1_1322_3445)"/>
</svg>
