<svg width="179" height="141" viewBox="0 0 179 141" fill="none" xmlns="http://www.w3.org/2000/svg">
<path fill-rule="evenodd" clip-rule="evenodd" d="M137.917 71.1728L150.457 62.8124L151.566 64.4765L140.711 71.7134L143.603 72.273L85.1169 131.743L80.8718 111.609L37.293 140.664L36.1835 139L80.4275 109.502L78.6041 100.854L37.2724 127.678L36.1837 126L78.1619 98.7567L76.4081 90.4387L18.2624 127.684L17.1837 126L75.9669 88.3462L69.5572 57.9459L110.929 65.9509L177.195 23.5046L178.273 25.1887L113.777 66.5019L124.627 68.6013L160.268 45.4707L161.357 47.1484L127.457 69.1489L137.917 71.1728ZM34.5569 47.7132L0 57.6215L30.2642 83.4053L34.5569 47.7132ZM97.1843 10.4999C97.1843 5.80551 93.3787 1.99994 88.6843 1.99994C83.9899 1.99994 80.1843 5.80551 80.1843 10.4999C80.1843 15.1944 83.9899 18.9999 88.6843 18.9999C93.3787 18.9999 97.1843 15.1944 97.1843 10.4999ZM99.1843 10.4999C99.1843 4.70094 94.4833 -6.10352e-05 88.6843 -6.10352e-05C82.8853 -6.10352e-05 78.1843 4.70094 78.1843 10.4999C78.1843 16.2989 82.8853 20.9999 88.6843 20.9999C94.4833 20.9999 99.1843 16.2989 99.1843 10.4999Z" fill="#FFDB9F"/>
</svg>
