<svg width="178" height="141" viewBox="0 0 178 141" fill="none" xmlns="http://www.w3.org/2000/svg">
<path fill-rule="evenodd" clip-rule="evenodd" d="M137.917 69.4912L150.457 77.8516L151.566 76.1875L140.711 68.9506L143.603 68.391L85.1169 8.92117L80.8719 29.0546L37.293 -6.16216e-05L36.1836 1.664L80.4275 31.1621L78.6042 39.8101L37.2725 12.9864L36.1837 14.6641L78.162 41.9073L76.4082 50.2253L18.2625 12.98L17.1837 14.6641L75.967 52.3178L69.5572 82.7181L110.929 74.7131L177.195 117.159L178.273 115.475L113.777 74.1621L124.627 72.0627L160.269 95.1933L161.357 93.5156L127.457 71.5151L137.917 69.4912ZM34.557 92.9508L5.17615e-05 83.0425L30.2643 57.2587L34.557 92.9508ZM97.1843 130.164C97.1843 134.858 93.3787 138.664 88.6843 138.664C83.9899 138.664 80.1843 134.858 80.1843 130.164C80.1843 125.47 83.9899 121.664 88.6843 121.664C93.3787 121.664 97.1843 125.47 97.1843 130.164ZM99.1843 130.164C99.1843 135.963 94.4833 140.664 88.6843 140.664C82.8853 140.664 78.1843 135.963 78.1843 130.164C78.1843 124.365 82.8853 119.664 88.6843 119.664C94.4833 119.664 99.1843 124.365 99.1843 130.164Z" fill="#FFDB9F"/>
</svg>
